<svg width="689" height="689" viewBox="0 0 689 689" fill="none" xmlns="http://www.w3.org/2000/svg">
<path d="M312.658 103.285L373.281 103.24C383.297 130.14 394.564 157.547 405.02 184.369L429.791 247.729C435.116 261.666 440.519 275.573 446.003 289.449C452.446 286.638 459.497 283.983 466.064 281.382C464.621 279.404 463.144 277.413 461.815 275.358C445.673 250.404 451.436 217.968 472.577 197.813C485.53 185.518 502.832 178.87 520.686 179.332C533.03 192.668 538.705 205.591 539.852 223.617C543.123 224.225 546.194 224.56 549.454 225.353C562.524 228.534 572.825 234.411 582.417 243.699C581.815 260.814 576.879 275.583 565.922 288.815C577.684 303.615 581.297 316.363 581.418 335.202C570.992 345.058 557.717 351.363 543.489 353.213C526.294 355.272 508.989 350.334 495.471 339.507C481.691 328.576 474.199 314.057 472.164 296.759C465.496 299.595 458.774 302.266 452.126 305.161C453.549 309.481 455.759 314.702 457.405 319.094L508.585 449.498L527.428 497.429C529.867 503.633 536.199 520.992 539.701 526.893C544.869 530.463 556.68 526.19 561.821 529.174C564.105 530.5 565.078 538.591 559.517 538.759C551.503 539.001 543.146 538.819 534.937 538.823L482.512 538.846L312.658 103.285ZM474.65 267.526C475.316 265.66 475.955 263.833 476.709 262.001C486.253 241.14 502.694 228.282 525.154 224.096C524.32 214.992 522.903 208.595 518.267 200.448C517.157 198.496 516.151 196.814 514.351 195.249C513.557 194.561 512.716 194.832 511.636 194.91C484.446 199.233 463.534 222.482 467.951 251.069C468.809 256.612 471.248 263.009 474.65 267.526ZM514.604 281.715C506.25 282.681 502.307 284.163 494.573 287.492C503.717 292.943 512.313 295.107 523.021 294.482C530.019 293.63 536.616 292.041 542.625 288.161C534.863 283.779 523.506 280.277 514.604 281.715ZM503.502 327.02C516.632 337.395 531.808 341.475 548.344 337.226C555.382 335.416 560.65 332.246 566.612 328.216C565.39 316.191 562.531 307.691 554.494 298.38C535.287 312.289 508.043 312.755 487.807 300.743C490.327 311.755 495.104 319.576 503.502 327.02ZM521.534 240.25C510.122 243.234 498.953 252.412 493.083 262.543C491.905 264.576 488.992 270.152 488.958 272.398C489.722 272.404 489.415 272.493 489.91 272.268C505.298 266.47 513.864 260.605 521.07 245.058C521.773 243.54 522.318 242.216 522.564 240.535L522.294 240.135L521.534 240.25ZM567.049 249.749C558.013 242.766 550.214 239.734 538.742 238.641C535.916 250.575 532.791 257.16 525.093 266.953C536.744 268.947 544.374 271.307 554.288 278.077L554.901 278.171C561.427 272.637 565.744 258.118 567.049 249.749Z" fill="#FAC014"/>
<path d="M374.862 310.888C375.054 310.989 375.249 311.09 375.441 311.191C379.021 320.559 384.403 334.807 387.848 343.73L435.547 467.867L451.722 510.365C455.309 519.768 459.093 529.268 462.363 538.786C435.005 539.19 407.496 538.685 380.124 538.816C378.644 538.826 376.629 538.416 375.333 537.699C374.149 536.037 374.213 535.149 374.25 533.07C374.425 523.219 391.142 531.6 396.582 526.95C397.709 524.343 391.156 509.328 389.854 505.954L377.48 473.701L332.425 355.986C328.942 357.459 323.322 360.524 319.809 362.3L293.822 375.512L260.221 392.545C227.028 409.642 193.189 429.118 189.974 471.104C187.773 499.841 204.089 526.177 234.644 527.58C254.224 528.478 273.12 520.72 287.671 507.784C295.302 500.706 301.262 493.042 304.572 483.077C310.223 466.067 304.447 449.038 286.781 443.211C285.958 458.666 271.603 467.265 257.948 460.826C253.121 458.582 249.409 454.481 247.656 449.455C245.941 444.358 246.291 438.793 248.631 433.952C257.408 415.933 284.691 417.74 299.927 425.316C311.903 431.227 321.016 441.687 325.232 454.36C330.143 469.243 327.544 485.213 320.581 498.97C283.381 572.462 150.823 559.547 126.14 482.041C119.7 462.222 121.466 440.647 131.042 422.137C148.687 388.447 187.887 372.047 221.75 359.77C240.738 352.884 260.938 346.559 280.236 340.456L374.862 310.888ZM170.562 505.82C156.256 457.862 176.512 414.608 218.389 389.924C224.427 386.365 230.094 382.698 236.482 379.663C238.271 378.883 239.989 377.843 241.691 376.878C239.299 377.53 237.83 378.005 235.517 378.893C206.176 388.918 166.481 405.151 151.978 434.699C145.267 448.096 144.29 463.645 149.273 477.775C153.313 489.092 160.748 498.886 170.562 505.82Z" fill="#FAC014"/>
<path d="M235.517 378.893C237.83 378.005 239.299 377.53 241.691 376.878C239.989 377.843 238.271 378.883 236.482 379.663L235.517 378.893Z" fill="#FAC014"/>
<path d="M294.194 104.152C295.242 105.286 303.466 127.244 304.915 130.874L348.012 240.06C354.536 256.77 362.142 274.86 368.077 291.571L314.701 308.091L274.782 207.192C273.544 210.998 271.345 216.06 269.815 219.881C266.951 227.108 264.037 234.316 261.075 241.504L222.022 336.317C212.104 340.14 202.364 344.177 192.365 347.8C195.474 339.178 200.5 328.119 204.154 319.433L225.111 269.352L294.194 104.152Z" fill="#FAC014"/>
</svg>
